<svg xmlns="http://www.w3.org/2000/svg" width="225.442" height="87.833" viewBox="0 0 225.442 87.833"><path fill="#D66C53" d="M0 54.024l3.646-.64c2.224-.392 3.734-.33 4.535.18.8.51 1.2 1.585 1.2 3.24l.005 13.846c0 1.65-.398 2.87-1.198 3.65-.8.782-2.314 1.368-4.536 1.755l-.823.146V87.34l-2.823.494L0 54.024zm2.826 2.004l.002 17.7.755-.136c1.128-.195 1.877-.56 2.256-1.092.38-.533.566-1.618.566-3.25l-.006-10c0-1.632-.186-2.65-.564-3.052-.378-.398-1.128-.5-2.258-.3l-.752.13zm20.205.855v20.012c.003 2.9-.377 4.94-1.132 6.11-.756 1.17-2.104 1.93-4.045 2.27-1.91.337-3.245.044-4.002-.876-.756-.927-1.134-2.824-1.134-5.696V58.696c0-2.848.383-4.855 1.145-6.037.766-1.183 2.108-1.94 4.037-2.278 1.926-.34 3.265-.057 4.012.854s1.12 2.788 1.12 5.647zm-2.955.06c0-1.71-.165-2.856-.49-3.433-.324-.578-.9-.79-1.73-.648-.818.144-1.382.557-1.704 1.228-.318.677-.477 1.885-.477 3.626l.003 20.93c0 1.754.16 2.912.487 3.465.325.554.905.76 1.734.614.814-.143 1.382-.546 1.7-1.215.317-.67.478-1.878.478-3.64V56.944zm7.936-7.833l3.004-.528v33.812l-3.003.526V49.11zm8.006-1.404l3.867-.682 4.69 30.973.046-.008-.425-31.72 2.56-.448v33.81l-3.915.686-4.647-30.542-.087.017.4 31.287-2.49.434V47.706zm13.648-2.393l9.626-1.693v2.682l-3.378.592v31.133l-2.867.502-.002-31.13-3.38.59v-2.677zm12.583-2.21l2.823-.495v31.125l5.093-.893v2.682l-7.916 1.393V43.103zm10.648-1.87l7.826-1.373v2.682l-5 .878.003 16.3 4.78-.836v2.658l-4.78.837-.003 9.484 5.135-.9v2.683l-7.958 1.397-.002-33.81zm20.585 1.75v3.234l-2.954.52-.003-3.142c.003-1.33-.133-2.22-.4-2.668-.267-.45-.742-.616-1.42-.495-.655.114-1.116.47-1.38 1.074-.267.61-.4 1.618-.4 3.04v1.65c0 .69.02 1.774.14 2.48.183 1.06.526 1.733.893 2.388l3.706 7.397c.702 1.17 1.14 2.15 1.422 3.104.283.95.4 1.67.4 2.738v.228c-.003 2.935-.362 4.977-1.08 6.126-.72 1.152-1.998 1.885-3.837 2.21-1.79.312-3.04.12-3.744-.58-.705-.703-1.057-2.202-1.057-4.49v-3.76l2.982-.524v3.643c0 1.377.13 2.29.397 2.73.267.442.757.6 1.466.478.728-.13 1.228-.496 1.504-1.102.27-.605.412-1.856.412-3.75v-.275c0-.868-.116-1.41-.22-2.103-.12-.783-.395-1.502-.692-2.045l-3.915-7.89c-.636-1.118-1.04-1.995-1.33-2.817-.288-.82-.36-1.95-.36-2.594v-1.97c0-2.63.354-4.52 1.055-5.674.706-1.16 1.916-1.885 3.638-2.186 1.808-.317 3.057-.133 3.745.556s1.032 2.18 1.032 4.472zm12.73-2.235v3.23l-2.956.52v-3.14c0-1.33-.13-2.22-.397-2.67-.27-.448-.742-.613-1.425-.495-.652.117-1.112.476-1.38 1.077-.266.606-.396 1.618-.396 3.04v1.65c0 .688.02 1.774.14 2.48.18 1.06.524 1.734.894 2.387l3.706 7.4c.698 1.168 1.14 2.148 1.42 3.1.283.95.398 1.673.398 2.74v.228c0 2.935-.358 4.977-1.076 6.126-.723 1.15-2 1.888-3.838 2.208-1.794.318-3.04.124-3.744-.58-.707-.703-1.06-2.196-1.06-4.488V61.8l2.98-.523v3.645c0 1.376.136 2.283.402 2.727.268.442.755.6 1.465.475.73-.126 1.228-.492 1.5-1.1.274-.605.41-1.856.41-3.75l.006-.274c-.003-.868-.117-1.41-.224-2.103-.116-.783-.393-1.504-.688-2.047l-3.914-7.885c-.64-1.12-1.043-2.004-1.33-2.823-.29-.82-.363-1.944-.363-2.59v-1.975c0-2.624.355-4.516 1.058-5.673.703-1.154 1.916-1.884 3.635-2.185 1.81-.316 3.055-.132 3.746.557.686.687 1.03 2.177 1.03 4.47zm75.75-13.29v3.23l-2.978.525v-3.14c0-1.316-.14-2.2-.412-2.657-.276-.454-.762-.624-1.457-.5-.64.112-1.082.476-1.334 1.094-.254.616-.38 1.84-.38 3.677v20.925c0 1.883.133 3.078.4 3.598.27.52.757.715 1.47.59.606-.104 1.043-.447 1.31-1.03.268-.583.402-1.515.402-2.798v-3.646l2.977-.524v3.76c0 2.31-.35 3.932-1.044 4.873-.696.936-1.94 1.566-3.734 1.882-1.764.31-2.993-.005-3.69-.937-.698-.932-1.045-2.832-1.045-5.704l-.002-20.014c0-2.857.35-4.865 1.048-6.027.693-1.162 1.926-1.9 3.687-2.205 1.81-.32 3.058-.13 3.744.556.693.69 1.035 2.18 1.035 4.473zm13.868-.898l.006 20.01c-.006 2.904-.38 4.94-1.135 6.116-.758 1.168-2.106 1.925-4.047 2.265-1.913.34-3.247.045-4.003-.877-.755-.922-1.135-2.818-1.135-5.692V28.37c0-2.844.385-4.852 1.146-6.035.763-1.18 2.11-1.94 4.037-2.278 1.926-.337 3.262-.053 4.012.856.746.905 1.118 2.79 1.118 5.647zm-2.953.06c0-1.71-.165-2.854-.49-3.434-.324-.575-.902-.79-1.734-.647-.815.145-1.382.552-1.698 1.228-.32.674-.48 1.884-.477 3.624v20.93c0 1.754.16 2.913.486 3.466.33.553.907.757 1.737.613.814-.142 1.383-.546 1.697-1.214.322-.67.48-1.882.48-3.638V26.62zm7.936-7.836l4.313-.754c2.222-.39 3.727-.333 4.514.172.783.502 1.176 1.588 1.176 3.252l.004 11.785c0 1.405-.26 2.448-.774 3.118-.52.674-1.442 1.184-2.76 1.538 1.41-.155 2.386.01 2.937.495.547.483.822 1.444.822 2.88l-.003 9.533-3 .526v-8.502c0-1.59-.22-2.583-.656-2.978-.436-.398-1.336-.48-2.7-.238l-1.044.184-.006 12.3-2.822.5V18.785zm2.823 2.008l.006 16.483.998-.18c1.29-.223 2.15-.606 2.58-1.15.428-.538.646-1.614.646-3.215l-.005-8.83c0-1.62-.217-2.627-.647-3.025-.43-.397-1.29-.485-2.58-.26l-1 .177zm12.342-4.666l3.643-.638c2.227-.39 3.734-.332 4.535.177.8.51 1.2 1.59 1.2 3.24l.008 13.85c0 1.648-.402 2.863-1.2 3.647-.803.783-2.313 1.368-4.537 1.758l-.823.143-.002 11.137-2.822.495v-33.81zm2.822 2.003l.004 17.7.754-.132c1.128-.2 1.882-.565 2.258-1.096.376-.534.565-1.618.565-3.252v-9.997c0-1.637-.19-2.65-.572-3.054-.373-.398-1.126-.5-2.254-.302l-.753.13zm3.512 26.984l3.133-.553v3.716l-3.134.55v-3.712zM154.48 27.98l-14.957-8.207-13.337.087-.677-.37-2.98-.266-2.502 2.772-3.85 11.03s3.253 1.108 4.62 1.792c1.365.684 10.515 2.054 10.515 2.054l23.935-.6 2.055-3.933-2.824-4.36zm-15.986-17.095l-4.617-9.236-4.36 1.796 2.226 10.002 6.75-2.563z"/><path fill="#1E1F20" d="M136.395 11.72l5.63-2.15-.01-.017c.496-.333.132-2.576-.843-5.127-.98-2.557-2.202-4.473-2.794-4.39L138.363 0l-5.382 2.057c1.376 1.506 2.567 4.618 3.025 6.953.387 1.967.39 1.834.39 2.71zm-6.032 4.474c.395-.15.47-1.01.283-2.277l2.832-1.084c.21-2.36-1.377-6.097-2.46-8.357-.438-.91-.86-1.18-1.066-1.26l-2.935 1.124c-.74-1.15-1.402-1.778-1.805-1.625-.8.306-.293 3.57 1.13 7.295 1.426 3.72 3.222 6.49 4.02 6.184zm-13.575 17.033c5.423-6.102 5.74-13.604 5.743-13.682v-.32c-2.16-.277-3.83-.684-4.977-1.038.07-.208.117-.434.117-.67 0-1.168-.946-2.12-2.114-2.12-1.17 0-2.116.952-2.116 2.12 0 .05.013.1.015.15l-5.534.44-2.31 1.41-6.23.448s1.53 5.387 2.1 5.95c.668.664 3.05 2.773 5.84 3.86.71.277 5.737 2.096 9.578 3.527l-.11-.075zm47.572 8.86c0-13.282-10.916-24.242-24.207-24.242-.257 0-.52.007-.772.015l.007.017c-4.363-.083-5.48 1.666-11.69 1.666-.763 0-1.488-.02-2.187-.05-.033.916-.286 4.83-2.192 9.113 1.066 1.11 5.766 7.456 13.315 2.918.24-.167.485-.352.73-.54 7.36-7.136 16.69-3.052 16.69-3.052l1.567 4.307-4.393 1.604c-5.35-3.72-10.604-.148-10.604-.148s-8.044 5.336-16.342-.206c-.115-.04-.266-.126-.458-.262-1.588-1.135-2.735-.4-3.147-.044-.29.403-.606.795-.93 1.193.71.27 1.236.485 1.48.602 2.46 1.153 2.9 3.38 2.9 3.38s.728 2.527-.54 4.52c-1.912 2.895-7.027 6.695-7.027 6.695l-.017.023c-.65.36-1.093 1.045-1.093 1.844 0 1.166.948 2.115 2.117 2.115.007 0 .014-.003.02-.003l.603.94c-1.426.976-2.726 2.164-3.837 3.554l2.557 2.057c2.755-3.43 6.85-5.394 11.222-5.394 1.32 0 2.616.185 3.853.53-.117.1-.22.2-.308.29-.343.354-.716.82-1.104 1.334-.833-.18-1.7-.276-2.584-.276-6.748 0-12.233 5.486-12.233 12.232 0 6.75 5.485 12.238 12.233 12.238 6.752 0 12.242-5.488 12.242-12.238 0-.906-.104-1.79-.293-2.646.104.003.213.007.322.007 2.452 0 4.82-.364 7.057-1.054.22 1.084.336 2.18.336 3.277v.586c-2.703.62-4.715 3.026-4.715 5.917 0 3.354 2.717 6.068 6.073 6.068 3.354 0 6.068-2.714 6.068-6.068 0-2.682-1.736-4.952-4.143-5.755l.002-.75c0-1.503-.182-3.002-.526-4.472.816-.383 1.61-.803 2.37-1.27.316.102.69.193 1.133.286 3.787.77 5.52-2.076 5.52-2.076-1.258-.18-2.228-.723-2.806-1.123 4.75-4.4 7.733-10.685 7.733-17.66zm-36.23 9.342c-2.47 0-4.866.516-7.06 1.473l-.872-1.357c4.166-1.795 7.893-1.848 8.334-1.848 1.66 0 3.322.247 4.947.717.106.6.106 1.216-.007 1.836-1.702-.535-3.498-.82-5.342-.82zm-.142 26.66c-5.108 0-9.26-4.156-9.26-9.268 0-5.104 4.15-9.26 9.26-9.26.242 0 .477.02.718.035-.49.775-.9 1.445-1.126 1.828-.308.37-.5.834-.5 1.348 0 .313.073.604.194.874l-.038.003 3.885 6.147-3.104 2.022 1.79 2.75 7.4-4.812c-.468 4.672-4.427 8.332-9.218 8.332zm22.85-2.427c.02-1.076.045-2.284.064-3.46.854.596 1.41 1.588 1.41 2.708 0 1.825-1.482 3.31-3.302 3.31-1.824 0-3.31-1.484-3.31-3.31 0-1.327.79-2.47 1.92-2.997-.02 1.248-.044 2.537-.064 3.688l3.28.063z"/></svg>