<svg width="130" height="43" fill="none" xmlns="http://www.w3.org/2000/svg"><path d="M21.836 18.325c0 5.834-4.705 10.556-10.52 10.556-5.814 0-10.52-4.722-10.52-10.556 0-5.835 4.706-10.557 10.52-10.557 5.815 0 10.52 4.722 10.52 10.556z" fill="#1496BB"/><path d="M32.087 6.824c0 3.035-2.453 5.53-5.512 5.53-3.025 0-5.512-2.461-5.512-5.53 0-3.035 2.454-5.531 5.512-5.531 3.025 0 5.512 2.496 5.512 5.531z" fill="#F26D21"/><path d="M65.583 8.735c0-.472.436-.91.907-.91h1.748c.47 0 .907.438.907.91v19.223c0 .473-.437.91-.907.91H66.49c-.47 0-.907-.438-.907-.91V8.735zM104.569 7.79c5.277 0 9.344 3.913 9.344 9.208 0 .337-.034 1.011-.101 1.349a.891.891 0 0 1-.908.843H98.217c.202 3.372 3.092 6.273 7.092 6.273 2.117 0 3.73-.675 5.007-1.653.437-.337.706-.337 1.042-.034.37.338.773.742 1.143 1.08.437.37.571.708.101 1.247-1.008 1.147-3.697 2.8-7.159 2.8-6.083 0-10.755-4.79-10.755-10.556 0-5.7 4.033-10.556 10.117-10.556h-.236zm5.882 8.634c-.135-2.934-3.025-5.53-6.083-5.53-3.361 0-5.848 2.664-6.05 5.53h12.133zM129.238 26.44l-1.445-1.45c-.101-.1-.47-.235-.84.068 0 0-.739.675-1.983.675-.874 0-1.58-.304-2.084-.844s-.84-1.315-.84-2.26c0-.067 0-.1-.034-.134v-11.77h5.311a.905.905 0 0 0 .907-.91v-1.08c0-.54-.37-.91-.907-.91h-5.311V2.427c0-.472-.369-.91-.873-.91l-1.546.168c-.471.068-.908.439-.908.91v5.195h-2.521c-.537 0-.907.37-.907.91v1.08c0 .471.403.91.907.91h2.521v12.074h.034a6.406 6.406 0 0 0 .941 3.17c.302.472.974 1.416 2.016 2.158 0 0 .034.034.068.034.504.303 1.579.776 3.26.776 1.747 0 3.226-.641 4.302-1.687.1-.1.168-.27.168-.404-.068-.102-.135-.27-.236-.371zM61.213 7.824h-2.117a.869.869 0 0 0-.84.54l-6.588 15.682L45.182 8.33c-.135-.27-.437-.54-.84-.54h-2.185c-.74 0-1.008.473-.74 1.113l.337.81 7.898 18.245c.168.439.504.911 1.008.911H52.61c.471 0 .84-.506 1.009-.91l7.965-18.212.336-.81c.303-.64 0-1.113-.706-1.113zM85.815 28.937h-7.024c-1.815 0-2.689-1.282-2.689-2.496 0-1.956 2.151-2.934 2.151-2.934s2.286 1.416 4.974 1.416c5.176 0 8.672-4.08 8.672-8.532 0-3.34-2.017-5.261-2.017-5.261l2.655-.743c.336-.033.538-.505.538-.843v-.843a.92.92 0 0 0-.941-.944h-9.276c-5.075 0-8.268 4.08-8.268 8.634 0 2.9 1.58 4.89 1.58 4.89s-3.26 1.922-3.26 5.632c0 3.035 2.285 4.317 3.562 4.654v.135c-.504.304-2.823 1.619-2.823 4.553 0 3.238 2.823 6.745 9.377 6.745 5.915 0 10.116-3.878 10.116-7.925 0-4.216-3.226-6.138-7.327-6.138zM83.227 10.96c2.924 0 5.31 2.394 5.31 5.329 0 2.934-2.386 5.328-5.31 5.328-2.924 0-5.31-2.394-5.31-5.328 0-2.935 2.386-5.33 5.31-5.33zm-.235 28.903c-3.327 0-5.848-1.72-5.848-4.081 0-2.9 3.26-3.777 3.26-3.777h5.411c3.428 0 3.697 2.563 3.697 3.17.034 2.9-3.293 4.688-6.52 4.688zM65.314 2.091c0-1.18.907-2.091 2.05-2.091 1.176 0 2.084.91 2.084 2.091a2.07 2.07 0 0 1-2.084 2.057 2.062 2.062 0 0 1-2.05-2.057z" fill="#fff"/></svg>