<svg width="20" height="20" viewBox="0 0 20 20" fill="none" xmlns="http://www.w3.org/2000/svg">
<path fill-rule="evenodd" clip-rule="evenodd" d="M19.3631 19.3631C18.5139 20.2123 17.1421 20.2123 16.2929 19.3631L10 13.0702L3.70713 19.3631C2.85792 20.2123 1.48612 20.2123 0.636908 19.3631C-0.212303 18.5139 -0.212303 17.1421 0.636908 16.2929L6.92978 10L0.636908 3.70713C-0.212303 2.85792 -0.212303 1.48612 0.636908 0.636908C1.48612 -0.212303 2.85792 -0.212303 3.70713 0.636908L10 6.92978L16.2929 0.636908C17.1421 -0.212303 18.5139 -0.212303 19.3631 0.636908C20.2123 1.48612 20.2123 2.85792 19.3631 3.70713L13.0702 10L19.3631 16.2929C20.1905 17.1203 20.1905 18.5139 19.3631 19.3631Z" fill="white"/>
</svg>
